<?xml version="1.0" encoding="UTF-8"?>
<svg width="1920px" height="1080px" viewBox="0 0 1920 1080" version="1.1" xmlns="http://www.w3.org/2000/svg" xmlns:xlink="http://www.w3.org/1999/xlink">
    <title>grid</title>
    <desc>Created with Sketch.</desc>
    <g id="Page-1" stroke="none" stroke-width="1" fill="none" fill-rule="evenodd" opacity="0.200000003" stroke-linecap="square">
        <g id="black" stroke="#FFFFFF" stroke-width="0.5">
            <path d="M480.861079,0 L480.861079,1079.50046 M384.907024,0 L384.907024,1079.50046 M240.975941,0 L240.975941,1079.50046 M320.937654,0 L320.937654,1079.50046 M61.0620866,0 L61.0620866,1079.50046 M120.03385,0 L120.03385,1079.50046 M767.723724,0 L767.723724,1079.50046 M1680.28677,0 L1680.28677,1079.50046 M1600.32506,0 L1600.32506,1079.50046 M1860.20063,0 L1860.20063,1079.50046 M1801.22886,0 L1801.22886,1079.50046 M1536.35569,0 L1536.35569,1079.50046 M1151.53995,0 L1151.53995,1079.50046 M1440.40163,0 L1440.40163,1079.50046 M0,360.352663 L1918.99896,360.352663 M0,269.453443 L1918.99896,269.453443 M0,67.6771534 L1918.99896,67.6771534 M0,809.854298 L1918.99896,809.854298 M0,1011.63059 L1918.99896,1011.63059 M0,718.955079 L1918.99896,718.955079 M0,539 L1918.99896,539 M959.499479,0 L959.499479,1079.5 M0.499739312,0.5 L1918.49922,1079.5 M1918.49922,0.5 L0.499739312,1079.5 M0.125212158,0.5 L480.689474,1079.5 M480.689474,0.5 L0.125212158,1079.5 M0.249903683,0.5 L959.380239,1079.5 M959.380239,0.5 L0.249903683,1079.5 M1438.57081,0.5 L1919.13507,1079.5 M1919.13507,0.5 L1438.57081,1079.5 M959.880046,0.5 L1919.01038,1079.5 M1919.01038,0.5 L959.880046,1079.5 M0.499807366,0.25 L1918.76048,539.75 M1918.76048,0.25 L0.499807366,539.75 M0.499807366,540.25 L1918.76048,1079.75 M1918.76048,540.25 L0.499807366,1079.75" id="grid"></path>
        </g>
    </g>
</svg>